<?xml version="1.0" encoding="UTF-8"?>
<svg xmlns="http://www.w3.org/2000/svg" width="20" height="20" viewBox="0 0 20 20" fill="currentColor">
    <path fill-rule="evenodd" d="M3 4a1 1 0 011-1h12a1 1 0 110 2H4a1 1 0 01-1-1zm0 4a1 1 0 011-1h12a1 1 0 110 2H4a1 1 0 01-1-1zm0 4a1 1 0 011-1h8a1 1 0 110 2H4a1 1 0 01-1-1zm0 4a1 1 0 011-1h4a1 1 0 110 2H4a1 1 0 01-1-1zm13.293-7.707a1 1 0 011.414 0l2 2a1 1 0 010 1.414l-2 2a1 1 0 01-1.414-1.414L16.586 12H14a1 1 0 110-2h2.586l-.293-.293a1 1 0 010-1.414z" clip-rule="evenodd"/>
</svg>